<svg xmlns="http://www.w3.org/2000/svg" width="13" height="14.857"><g id="clipboard-check" transform="translate(6.5 7.429)"><g id="clipboard-check-2" data-name="clipboard-check" transform="translate(-6.5 -7.429)"><path id="Контур_1" data-name="Контур 1" d="M10.472 7.136a.464.464 0 010 .657l-2.786 2.786a.464.464 0 01-.657 0L5.636 9.186a.465.465 0 01.657-.657l1.064 1.064 2.457-2.457a.464.464 0 01.657 0z" transform="translate(-1.321 -.5)" fill-rule="evenodd"/><path id="Контур_2" data-name="Контур 2" d="M3.786 1.5h-.929A1.857 1.857 0 001 3.357v9.75a1.857 1.857 0 001.857 1.857h9.286A1.857 1.857 0 0014 13.107v-9.75A1.857 1.857 0 0012.143 1.5h-.929v.929h.929a.929.929 0 01.929.929v9.75a.929.929 0 01-.929.929H2.857a.929.929 0 01-.929-.929V3.357a.929.929 0 01.929-.929h.929z" transform="translate(-1 -.107)"/><path id="Контур_3" data-name="Контур 3" d="M9.179.929a.464.464 0 01.464.464v.929a.464.464 0 01-.464.464H6.393a.464.464 0 01-.464-.464v-.929a.464.464 0 01.464-.464zM6.393 0A1.393 1.393 0 005 1.393v.929a1.393 1.393 0 001.393 1.392h2.786a1.393 1.393 0 001.393-1.393v-.928A1.393 1.393 0 009.179 0z" transform="translate(-1.286)"/></g></g></svg>